<svg width="20" height="20" viewBox="0 0 20 20" fill="none" xmlns="http://www.w3.org/2000/svg">
<path d="M11.7683 8.23337C12.7441 9.2092 12.7441 10.7934 11.7683 11.7709C10.7924 12.7467 9.20828 12.7467 8.23078 11.7709C7.25494 10.795 7.25494 9.21087 8.23078 8.23337C9.20828 7.25587 10.7916 7.25587 11.7683 8.23337" stroke="#AFAFAF" stroke-width="1.5" stroke-linecap="round" stroke-linejoin="round"/>
<path fill-rule="evenodd" clip-rule="evenodd" d="M2.5 10.0001C2.5 9.45092 2.62667 8.90758 2.87167 8.40675V8.40675C4.13417 5.82591 6.92417 4.16675 10 4.16675C13.0758 4.16675 15.8658 5.82591 17.1283 8.40675V8.40675C17.3733 8.90758 17.5 9.45092 17.5 10.0001C17.5 10.5492 17.3733 11.0926 17.1283 11.5934V11.5934C15.8658 14.1742 13.0758 15.8334 10 15.8334C6.92417 15.8334 4.13417 14.1742 2.87167 11.5934V11.5934C2.62667 11.0926 2.5 10.5492 2.5 10.0001Z" stroke="#AFAFAF" stroke-width="1.5" stroke-linecap="round" stroke-linejoin="round"/>
</svg>